# Blender v2.76 (sub 0) OBJ File: 'dungeon_modules.blend'
# www.blender.org
v 0.000000 2.000000 1.000000
v 0.000000 2.000000 -1.000000
v -0.990000 2.000000 -1.000000
v -0.990000 2.000000 1.000000
v 0.000000 0.221725 1.000000
v 0.000000 0.221725 -1.000000
v -0.990000 0.000000 -1.000000
v -0.990000 0.000000 1.000000
v 0.034130 0.157810 1.000000
v 0.034130 0.157810 -1.000000
v 0.034130 0.000000 1.000000
v 0.034130 0.000000 -1.000000
v 0.000000 0.000000 1.000000
v 0.000000 0.000000 -1.000000
v -1.000000 0.000000 -1.000000
v 0.000000 0.000000 -1.000000
v 0.000000 2.000000 -1.000000
v -1.000000 2.000000 -1.000000
vt 0.000058 0.675294
vt 0.000058 0.341999
vt 0.666647 0.341999
vt 0.585688 0.382710
vt 0.585688 -0.007510
vt 0.762405 -0.007510
vt 0.000082 0.864108
vt 0.000082 0.000106
vt 0.666639 0.000106
vt 0.000047 0.906525
vt 0.000047 0.858528
vt 1.001869 0.858528
vt -0.001726 0.999561
vt -0.001726 0.899738
vt 0.999995 0.899738
vt 0.655949 0.082958
vt 0.094320 0.082958
vt 0.094320 0.683280
vt 0.666647 0.675294
vt 0.762405 0.382710
vt 0.666639 0.864108
vt 1.001869 0.906525
vt 0.999995 0.999561
vt 0.655949 0.683280
vt 0.000000 0.000000
vt 0.999904 1.000476
vt 0.333306 0.333497
vn 0.000000 1.000000 -0.000000
vn 1.000000 0.000000 -0.000000
vn -1.000000 0.000000 -0.000000
vn 0.882100 0.471000 -0.000000
vn 0.000000 0.000000 1.000000
vn 0.000000 -1.000000 0.000000
s off
f 2/1/1 3/2/1 4/3/1
f 6/4/2 2/5/2 1/6/2
f 3/7/3 7/8/3 8/9/3
f 10/10/4 6/11/4 5/12/4
f 12/13/2 10/14/2 9/15/2
f 16/16/5 17/17/5 18/18/5
f 1/19/1 2/1/1 4/3/1
f 5/20/2 6/4/2 1/6/2
f 4/21/3 3/7/3 8/9/3
f 9/22/4 10/10/4 5/12/4
f 11/23/2 12/13/2 9/15/2
f 15/24/5 16/16/5 18/18/5
f 14/25/6 12/26/6 11/27/6
f 13/25/6 14/25/6 11/27/6
