# Blender v2.76 (sub 0) OBJ File: 'dungeon_modules.blend'
# www.blender.org
o wall_insteadof_door.001_Plane.005
v 0.000000 2.000000 1.000000
v 0.000000 2.000000 -1.000000
v -1.000000 2.000000 -1.000000
v -1.000000 2.000000 1.000000
v 0.000000 0.221725 1.000000
v 0.000000 0.221725 -1.000000
v 0.034130 0.157810 1.000000
v 0.034130 0.157810 -1.000000
v 0.034130 0.000000 1.000000
v 0.034130 0.000000 -1.000000
v 0.000000 0.000000 1.000000
v 0.000000 0.000000 -1.000000
v -1.000000 0.221725 -1.000000
v -1.000000 0.221725 1.000000
v -1.034130 0.157810 -1.000000
v -1.034130 0.157810 1.000000
v -1.034130 0.000000 -1.000000
v -1.034130 0.000000 1.000000
vt 0.000058 0.675294
vt 0.000058 0.341999
vt 0.666647 0.341999
vt 0.585688 0.382710
vt 0.585688 -0.007510
vt 0.762405 -0.007510
vt 0.000047 0.906525
vt 0.000047 0.858528
vt 1.001869 0.858528
vt -0.001726 0.999561
vt -0.001726 0.899738
vt 0.999995 0.899738
vt 0.666647 0.675294
vt 0.762405 0.382710
vt 1.001869 0.906525
vt 0.999995 0.999561
vt 0.000000 0.000000
vt 0.999904 1.000476
vt 0.333306 0.333497
vn 0.000000 1.000000 0.000000
vn 1.000000 0.000000 -0.000000
vn 0.882100 0.471000 -0.000000
vn -1.000000 0.000000 0.000000
vn -0.882100 0.471000 -0.000000
vn 0.000000 -1.000000 0.000000
s off
f 2/1/1 3/2/1 4/3/1
f 6/4/2 2/5/2 1/6/2
f 8/7/3 6/8/3 5/9/3
f 10/10/2 8/11/2 7/12/2
f 14/4/4 4/5/4 3/6/4
f 16/7/5 14/8/5 13/9/5
f 18/10/4 16/11/4 15/12/4
f 1/13/1 2/1/1 4/3/1
f 5/14/2 6/4/2 1/6/2
f 7/15/3 8/7/3 5/9/3
f 9/16/2 10/10/2 7/12/2
f 13/14/4 14/4/4 3/6/4
f 15/15/5 16/7/5 13/9/5
f 17/16/4 18/10/4 15/12/4
f 12/17/6 10/18/6 9/19/6
f 11/17/6 12/17/6 9/19/6
