# Blender v2.76 (sub 0) OBJ File: 'dungeon_modules.blend'
# www.blender.org
o Corner.001_Plane.013
v -4.990000 0.000000 4.990001
v -4.000000 0.000000 4.990001
v -4.990000 0.000000 4.000001
v -4.990000 2.000000 4.000001
v -4.990000 2.000000 4.990001
v -4.000000 2.000000 4.990001
v -4.000000 2.000000 4.000001
vt 0.532759 0.166269
vt 0.532759 0.696955
vt 0.284518 0.696955
vt 0.267807 0.000061
vt 0.267807 0.860177
vt 0.000038 0.860177
vt 1.000998 0.000061
vt 1.000998 0.863684
vt 0.735750 0.863684
vt 0.284518 0.166269
vt 0.000038 0.000061
vt 0.735750 0.000061
vn 0.000000 1.000000 0.000000
vn -1.000000 0.000000 0.000000
vn 0.000000 0.000000 1.000000
s off
f 6/1/1 7/2/1 4/3/1
f 1/4/2 5/5/2 4/6/2
f 2/7/3 6/8/3 5/9/3
f 5/10/1 6/1/1 4/3/1
f 3/11/2 1/4/2 4/6/2
f 1/12/3 2/7/3 5/9/3
