# Blender v2.76 (sub 0) OBJ File: ''
# www.blender.org
o SingleLeaf.008_Plane.002
v 0.122101 4.108311 -0.102417
v -0.549098 3.250917 -0.926234
v -0.134798 4.189673 0.118642
v -0.846544 3.326352 -0.760947
v -0.008346 3.988991 -0.420808
v -0.170273 3.800148 -0.658515
v -0.335929 3.538237 -0.828432
v -0.826894 3.674477 -0.523857
v -0.688952 3.955720 -0.291309
v -0.458569 4.129987 -0.060541
v -0.006348 4.148992 0.008112
v -0.700651 3.293318 -0.846004
v -0.237160 4.072886 -0.241723
v -0.437967 3.900335 -0.479548
v -0.589274 3.622370 -0.681978
v -0.006672 4.074780 0.180879
v 1.318907 3.814028 0.378759
v -0.006025 4.120509 -0.164654
v 1.382328 3.886886 0.043865
v 0.323899 4.129512 0.323547
v 0.658754 4.098162 0.396176
v 0.988881 3.975992 0.427840
v 1.069267 4.093826 -0.148378
v 0.711250 4.214640 -0.245500
v 0.341962 4.219169 -0.262976
v -0.006348 4.097644 0.008112
v 1.351794 3.856252 0.210418
v 0.329901 4.187488 0.026783
v 0.683085 4.180072 0.069947
v 1.030456 4.053308 0.136285
v -0.126286 4.113358 -0.153299
v -1.396090 3.485626 0.590880
v 0.113589 4.184627 0.169524
v -1.226029 3.572328 0.951984
v -0.537212 4.088885 -0.040706
v -0.882062 3.968615 0.130154
v -1.172818 3.747682 0.325577
v -0.852871 3.895135 0.925414
v -0.489423 4.124812 0.769925
v -0.147863 4.219577 0.520757
v -0.006348 4.148993 0.008113
v -1.312748 3.535383 0.773717
v -0.340209 4.170215 0.242465
v -0.685375 4.074591 0.456135
v -1.015664 3.842345 0.631617
v 0.004580 4.209535 -0.228733
v 1.704543 4.737595 -0.080129
v -0.088051 4.126792 0.210011
v 1.667712 4.724436 0.374176
v 0.370269 4.511196 -0.276341
v 0.782115 4.691929 -0.257949
v 1.238349 4.752687 -0.213807
v 1.147251 4.705547 0.555982
v 0.648136 4.602236 0.582681
v 0.224606 4.393684 0.477362
v -0.041735 4.168163 -0.009361
v 1.683629 4.737799 0.150017
v 0.285053 4.464066 0.107148
v 0.696999 4.670351 0.174412
v 1.182096 4.749099 0.180527
v -0.226660 4.210166 -0.155702
v -1.595706 4.252717 1.310058
v 0.197317 4.149594 0.125061
v -1.220623 4.249940 1.658709
v -0.624410 4.422313 0.132561
v -0.981505 4.489613 0.484012
v -1.327101 4.413645 0.864069
v -0.662891 4.391027 1.428865
v -0.219790 4.434370 1.067821
v 0.087493 4.340666 0.629763
v -0.014672 4.179880 -0.015320
v -1.405469 4.259425 1.486477
v -0.256220 4.397880 0.380132
v -0.582415 4.492730 0.777650
v -0.983911 4.427225 1.150728
v -0.212036 4.179278 0.157574
v 0.681978 4.221828 1.952979
v 0.199339 4.118706 -0.141349
v 1.139840 4.219051 1.723615
v -0.081184 4.391425 0.631048
v 0.123088 4.458725 1.088550
v 0.358180 4.382757 1.545291
v 1.119696 4.360140 1.120715
v 0.936533 4.403481 0.579289
v 0.633701 4.309778 0.138143
v -0.006348 4.148992 0.008112
v 0.913813 4.228537 1.836504
v 0.279576 4.366992 0.372771
v 0.537815 4.461842 0.817446
v 0.746809 4.396337 1.324109
v 0.188133 4.287498 0.083604
v 0.176483 4.599383 -1.583615
v -0.228992 4.186665 0.141188
v -0.254423 4.557171 -1.587393
v 0.248655 4.537469 -0.288584
v 0.259068 4.664022 -0.696715
v 0.257084 4.671216 -1.135702
v -0.474209 4.579249 -1.112447
v -0.540378 4.531160 -0.634751
v -0.468195 4.386050 -0.204996
v -0.020430 4.237082 0.112396
v -0.042462 4.584696 -1.584160
v -0.117948 4.473478 -0.237009
v -0.155219 4.620455 -0.652302
v -0.119754 4.644436 -1.117029
v 0.079119 4.027523 -0.248981
v -1.746838 4.596434 -1.573242
v -0.091816 4.270461 0.265206
v -1.966641 4.921798 -1.127763
v -0.207076 4.291776 -0.731924
v -0.622195 4.472948 -1.104061
v -1.141164 4.542296 -1.401446
v -1.489425 5.068843 -0.611330
v -0.976161 5.009265 -0.193229
v -0.507821 4.734590 0.126149
v -0.006348 4.148992 0.008112
v -1.853398 4.768740 -1.350695
v -0.343446 4.531297 -0.296576
v -0.777954 4.776029 -0.641471
v -1.302034 4.834586 -1.004213
v 0.071635 4.274218 0.217398
v -1.708982 4.812687 0.968399
v -0.084332 4.023767 -0.201173
v -1.939429 4.631452 0.548517
v -0.299627 4.618835 0.389765
v -0.730492 4.811786 0.570565
v -1.195782 4.868808 0.793960
v -1.554712 4.534801 0.072648
v -1.082966 4.405823 -0.226334
v -0.584780 4.214992 -0.328761
v -0.006348 4.148992 0.008112
v -1.824889 4.728124 0.752126
v -0.436661 4.426582 0.013318
v -0.901155 4.628738 0.142928
v -1.374490 4.719347 0.412040
v -0.040896 4.179278 -0.243785
v 1.873604 4.221828 -0.841639
v 0.028199 4.118706 0.260010
v 2.025076 4.219051 -0.352454
v 0.391354 4.391425 -0.477153
v 0.862907 4.458725 -0.646483
v 1.355247 4.382757 -0.793045
v 1.576077 4.360140 0.050402
v 1.058579 4.403481 0.293067
v 0.530593 4.309778 0.379952
v -0.006348 4.148992 0.008112
v 1.950058 4.228537 -0.593709
v 0.454738 4.366992 -0.038021
v 0.954397 4.461842 -0.159527
v 1.464694 4.396337 -0.359485
vt 0.354979 0.270371
vt 0.055501 -0.009101
vt 0.171298 -0.035259
vt 0.544881 0.162535
vt 0.953433 0.947765
vt 0.733150 0.674486
vt 0.974168 0.606905
vt 1.045231 0.858127
vt 0.551264 0.472429
vt 0.768419 0.390732
vt 0.360507 0.530902
vt 0.141079 0.311632
vt 0.540848 0.762195
vt 0.832836 0.930571
vt -0.038697 0.034089
vn -0.369300 0.525500 -0.766500
vn 0.007100 0.950700 -0.310100
vn -0.170500 0.860500 -0.480000
vn -0.319100 0.679200 -0.661000
vn -0.230800 0.640600 -0.732400
vn -0.094500 0.826000 -0.555700
vn 0.043200 0.936000 -0.349400
vn -0.297800 0.501800 -0.812100
vn 0.462200 0.862300 0.207000
vn -0.252500 0.961700 0.106700
vn 0.007300 0.994000 0.109300
vn 0.296000 0.943200 0.151000
vn 0.297900 0.916200 0.267900
vn 0.018000 0.975400 0.219900
vn -0.246200 0.955700 0.161200
vn 0.453000 0.842200 0.292300
vn -0.643800 0.738700 0.199900
vn -0.055700 0.986900 -0.151200
vn -0.261400 0.965200 0.009100
vn -0.497800 0.854400 0.149100
vn -0.566400 0.822200 0.056100
vn -0.334500 0.939600 -0.072700
vn -0.093100 0.977200 -0.190700
vn -0.685700 0.717000 0.125500
vn -0.012500 -0.995300 -0.095500
vn 0.667400 -0.744400 -0.020300
vn 0.458100 -0.884000 -0.092900
vn 0.178100 -0.976600 -0.120100
vn 0.146900 -0.989100 -0.005000
vn 0.424100 -0.905500 0.012300
vn 0.651200 -0.758200 0.030800
vn -0.026300 -0.999600 -0.008700
vn -0.148500 0.953200 0.263500
vn 0.336500 0.899800 -0.277600
vn 0.207700 0.976200 -0.062800
vn 0.007600 0.987900 0.155200
vn -0.094500 0.991200 0.092400
vn 0.108400 0.987400 -0.114800
vn 0.287900 0.908600 -0.302400
vn -0.217600 0.953400 0.208800
vn 0.194800 0.953200 0.231300
vn -0.142300 0.899800 -0.412400
vn 0.013900 0.976200 -0.216600
vn 0.148100 0.987900 0.047200
vn 0.053500 0.991200 0.120900
vn -0.069600 0.987400 -0.141800
vn -0.182600 0.908600 -0.375600
vn 0.119500 0.953400 0.276900
vn -0.160400 0.977700 -0.135500
vn -0.137100 0.808200 0.572700
vn -0.197600 0.918300 0.343000
vn -0.202700 0.977800 0.052900
vn -0.086100 0.995800 0.031200
vn -0.091100 0.944200 0.316600
vn -0.085700 0.824100 0.559900
vn -0.073000 0.987200 -0.141700
vn 0.198000 0.870400 -0.450800
vn 0.755600 0.654100 -0.034800
vn 0.578200 0.800000 -0.160300
vn 0.347500 0.878200 -0.328800
vn 0.373600 0.821300 -0.431100
vn 0.599900 0.756100 -0.261700
vn 0.767300 0.635500 -0.085500
vn 0.224800 0.823700 -0.520500
vn 0.225700 -0.909700 0.348600
vn -0.423200 -0.685600 0.592400
vn -0.187200 -0.797300 0.573800
vn 0.076300 -0.880700 0.467400
vn 0.044200 -0.930700 0.363200
vn -0.210400 -0.852600 0.478400
vn -0.434200 -0.715500 0.547200
vn 0.192500 -0.942300 0.273800
vn -0.301800 -0.953200 0.019500
vn 0.396100 -0.899800 -0.182800
vn 0.146700 -0.976200 -0.159900
vn -0.136600 -0.987900 -0.074200
vn -0.124300 -0.991200 0.045100
vn 0.150500 -0.987400 -0.047900
vn 0.397400 -0.908600 -0.128300
vn -0.282500 -0.953400 0.105500
s off
f 15/1/1 12/2/1 4/3/1 8/4/1
f 11/5/2 13/6/2 10/7/2 3/8/2
f 13/6/3 14/9/3 9/10/3 10/7/3
f 14/9/4 15/1/4 8/4/4 9/10/4
f 6/11/5 7/12/5 15/1/5 14/9/5
f 5/13/6 6/11/6 14/9/6 13/6/6
f 1/14/7 5/13/7 13/6/7 11/5/7
f 7/12/8 2/15/8 12/2/8 15/1/8
f 30/1/9 27/2/9 19/3/9 23/4/9
f 26/5/10 28/6/10 25/7/10 18/8/10
f 28/6/11 29/9/11 24/10/11 25/7/11
f 29/9/12 30/1/12 23/4/12 24/10/12
f 21/11/13 22/12/13 30/1/13 29/9/13
f 20/13/14 21/11/14 29/9/14 28/6/14
f 16/14/15 20/13/15 28/6/15 26/5/15
f 22/12/16 17/15/16 27/2/16 30/1/16
f 45/1/17 42/2/17 34/3/17 38/4/17
f 41/5/18 43/6/18 40/7/18 33/8/18
f 43/6/19 44/9/19 39/10/19 40/7/19
f 44/9/20 45/1/20 38/4/20 39/10/20
f 36/11/21 37/12/21 45/1/21 44/9/21
f 35/13/22 36/11/22 44/9/22 43/6/22
f 31/14/23 35/13/23 43/6/23 41/5/23
f 37/12/24 32/15/24 42/2/24 45/1/24
f 60/1/25 57/2/25 49/3/25 53/4/25
f 56/5/26 58/6/26 55/7/26 48/8/26
f 58/6/27 59/9/27 54/10/27 55/7/27
f 59/9/28 60/1/28 53/4/28 54/10/28
f 51/11/29 52/12/29 60/1/29 59/9/29
f 50/13/30 51/11/30 59/9/30 58/6/30
f 46/14/31 50/13/31 58/6/31 56/5/31
f 52/12/32 47/15/32 57/2/32 60/1/32
f 75/1/33 72/2/33 64/3/33 68/4/33
f 71/5/34 73/6/34 70/7/34 63/8/34
f 73/6/35 74/9/35 69/10/35 70/7/35
f 74/9/36 75/1/36 68/4/36 69/10/36
f 66/11/37 67/12/37 75/1/37 74/9/37
f 65/13/38 66/11/38 74/9/38 73/6/38
f 61/14/39 65/13/39 73/6/39 71/5/39
f 67/12/40 62/15/40 72/2/40 75/1/40
f 90/1/41 87/2/41 79/3/41 83/4/41
f 86/5/42 88/6/42 85/7/42 78/8/42
f 88/6/43 89/9/43 84/10/43 85/7/43
f 89/9/44 90/1/44 83/4/44 84/10/44
f 81/11/45 82/12/45 90/1/45 89/9/45
f 80/13/46 81/11/46 89/9/46 88/6/46
f 76/14/47 80/13/47 88/6/47 86/5/47
f 82/12/48 77/15/48 87/2/48 90/1/48
f 105/1/49 102/2/49 94/3/49 98/4/49
f 101/5/50 103/6/50 100/7/50 93/8/50
f 103/6/51 104/9/51 99/10/51 100/7/51
f 104/9/52 105/1/52 98/4/52 99/10/52
f 96/11/53 97/12/53 105/1/53 104/9/53
f 95/13/54 96/11/54 104/9/54 103/6/54
f 91/14/55 95/13/55 103/6/55 101/5/55
f 97/12/56 92/15/56 102/2/56 105/1/56
f 120/1/57 117/2/57 109/3/57 113/4/57
f 116/5/58 118/6/58 115/7/58 108/8/58
f 118/6/59 119/9/59 114/10/59 115/7/59
f 119/9/60 120/1/60 113/4/60 114/10/60
f 111/11/61 112/12/61 120/1/61 119/9/61
f 110/13/62 111/11/62 119/9/62 118/6/62
f 106/14/63 110/13/63 118/6/63 116/5/63
f 112/12/64 107/15/64 117/2/64 120/1/64
f 135/1/65 132/2/65 124/3/65 128/4/65
f 131/5/66 133/6/66 130/7/66 123/8/66
f 133/6/67 134/9/67 129/10/67 130/7/67
f 134/9/68 135/1/68 128/4/68 129/10/68
f 126/11/69 127/12/69 135/1/69 134/9/69
f 125/13/70 126/11/70 134/9/70 133/6/70
f 121/14/71 125/13/71 133/6/71 131/5/71
f 127/12/72 122/15/72 132/2/72 135/1/72
f 150/1/73 147/2/73 139/3/73 143/4/73
f 146/5/74 148/6/74 145/7/74 138/8/74
f 148/6/75 149/9/75 144/10/75 145/7/75
f 149/9/76 150/1/76 143/4/76 144/10/76
f 141/11/77 142/12/77 150/1/77 149/9/77
f 140/13/78 141/11/78 149/9/78 148/6/78
f 136/14/79 140/13/79 148/6/79 146/5/79
f 142/12/80 137/15/80 147/2/80 150/1/80
