# Blender v2.76 (sub 0) OBJ File: 'overworld.blend'
# www.blender.org
o SingleLeaf.008_Plane.002
v 0.122101 4.108311 -0.102417
v -0.549098 3.250917 -0.926234
v -0.134798 4.189673 0.118642
v -0.846544 3.326352 -0.760947
v -0.008346 3.988991 -0.420808
v -0.170273 3.800148 -0.658515
v -0.335929 3.538237 -0.828432
v -0.826894 3.674477 -0.523857
v -0.688952 3.955720 -0.291309
v -0.458569 4.129987 -0.060541
v -0.006348 4.148992 0.008112
v -0.700651 3.293318 -0.846004
v -0.237160 4.072886 -0.241723
v -0.437967 3.900335 -0.479548
v -0.589274 3.622370 -0.681978
v -0.006672 4.074780 0.180879
v 1.318907 3.814028 0.378759
v -0.006025 4.120509 -0.164654
v 1.382328 3.886886 0.043865
v 0.323899 4.129512 0.323547
v 0.658754 4.098162 0.396176
v 0.988881 3.975992 0.427840
v 1.069267 4.093826 -0.148378
v 0.711250 4.214640 -0.245500
v 0.341962 4.219169 -0.262976
v -0.006348 4.097644 0.008112
v 1.351794 3.856252 0.210418
v 0.329901 4.187488 0.026783
v 0.683085 4.180072 0.069947
v 1.030456 4.053308 0.136285
v -0.126286 4.113358 -0.153299
v -1.396090 3.485626 0.590880
v 0.113589 4.184627 0.169524
v -1.226029 3.572328 0.951984
v -0.537212 4.088885 -0.040706
v -0.882062 3.968615 0.130154
v -1.172818 3.747682 0.325577
v -0.852871 3.895135 0.925414
v -0.489423 4.124812 0.769925
v -0.147863 4.219577 0.520757
v -0.006348 4.148993 0.008113
v -1.312748 3.535383 0.773717
v -0.340209 4.170215 0.242465
v -0.685375 4.074591 0.456135
v -1.015664 3.842345 0.631617
v 0.004580 4.209535 -0.228733
v 1.704543 4.737595 -0.080129
v -0.088051 4.126792 0.210011
v 1.667712 4.724436 0.374176
v 0.370269 4.511196 -0.276341
v 0.782115 4.691929 -0.257949
v 1.238349 4.752687 -0.213807
v 1.147251 4.705547 0.555982
v 0.648136 4.602236 0.582681
v 0.224606 4.393684 0.477362
v -0.041735 4.168163 -0.009361
v 1.683629 4.737799 0.150017
v 0.285053 4.464066 0.107148
v 0.696999 4.670351 0.174412
v 1.182096 4.749099 0.180527
v -0.226660 4.210166 -0.155702
v -1.595706 4.252717 1.310058
v 0.197317 4.149594 0.125061
v -1.220623 4.249940 1.658709
v -0.624410 4.422313 0.132561
v -0.981505 4.489613 0.484012
v -1.327101 4.413645 0.864069
v -0.662891 4.391027 1.428865
v -0.219790 4.434370 1.067821
v 0.087493 4.340666 0.629763
v -0.014672 4.179880 -0.015320
v -1.405469 4.259425 1.486477
v -0.256220 4.397880 0.380132
v -0.582415 4.492730 0.777650
v -0.983911 4.427225 1.150728
v -0.212036 4.179278 0.157574
v 0.681978 4.221828 1.952979
v 0.199339 4.118706 -0.141349
v 1.139840 4.219051 1.723615
v -0.081184 4.391425 0.631048
v 0.123088 4.458725 1.088550
v 0.358180 4.382757 1.545291
v 1.119696 4.360140 1.120715
v 0.936533 4.403481 0.579289
v 0.633701 4.309778 0.138143
v -0.006348 4.148992 0.008112
v 0.913813 4.228537 1.836504
v 0.279576 4.366992 0.372771
v 0.537815 4.461842 0.817446
v 0.746809 4.396337 1.324109
v 0.188133 4.287498 0.083604
v 0.176483 4.599383 -1.583615
v -0.228992 4.186665 0.141188
v -0.254423 4.557171 -1.587393
v 0.248655 4.537469 -0.288584
v 0.259068 4.664022 -0.696715
v 0.257084 4.671216 -1.135702
v -0.474209 4.579249 -1.112447
v -0.540378 4.531160 -0.634751
v -0.468195 4.386050 -0.204996
v -0.020430 4.237082 0.112396
v -0.042462 4.584696 -1.584160
v -0.117948 4.473478 -0.237009
v -0.155219 4.620455 -0.652302
v -0.119754 4.644436 -1.117029
v 0.079119 4.027523 -0.248981
v -1.746838 4.596434 -1.573242
v -0.091816 4.270461 0.265206
v -1.966641 4.921798 -1.127763
v -0.207076 4.291776 -0.731924
v -0.622195 4.472948 -1.104061
v -1.141164 4.542296 -1.401446
v -1.489425 5.068843 -0.611330
v -0.976161 5.009265 -0.193229
v -0.507821 4.734590 0.126149
v -0.006348 4.148992 0.008112
v -1.853398 4.768740 -1.350695
v -0.343446 4.531297 -0.296576
v -0.777954 4.776029 -0.641471
v -1.302034 4.834586 -1.004213
v 0.071635 4.274218 0.217398
v -1.708982 4.812687 0.968399
v -0.084332 4.023767 -0.201173
v -1.939429 4.631452 0.548517
v -0.299627 4.618835 0.389765
v -0.730492 4.811786 0.570565
v -1.195782 4.868808 0.793960
v -1.554712 4.534801 0.072648
v -1.082966 4.405823 -0.226334
v -0.584780 4.214992 -0.328761
v -0.006348 4.148992 0.008112
v -1.824889 4.728124 0.752126
v -0.436661 4.426582 0.013318
v -0.901155 4.628738 0.142928
v -1.374490 4.719347 0.412040
v -0.040896 4.179278 -0.243785
v 1.873604 4.221828 -0.841639
v 0.028199 4.118706 0.260010
v 2.025076 4.219051 -0.352454
v 0.391354 4.391425 -0.477153
v 0.862907 4.458725 -0.646483
v 1.355247 4.382757 -0.793045
v 1.576077 4.360140 0.050402
v 1.058579 4.403481 0.293067
v 0.530593 4.309778 0.379952
v -0.006348 4.148992 0.008112
v 1.950058 4.228537 -0.593709
v 0.454738 4.366992 -0.038021
v 0.954397 4.461842 -0.159527
v 1.464694 4.396337 -0.359485
vt 0.354979 0.270371
vt 0.055501 -0.009101
vt 0.171298 -0.035259
vt 0.733150 0.674486
vt 0.974168 0.606905
vt 1.045231 0.858127
vt 0.551264 0.472429
vt 0.768419 0.390732
vt 0.544881 0.162535
vt 0.360507 0.530902
vt 0.141079 0.311632
vt 0.540848 0.762195
vt 0.832836 0.930571
vt -0.038697 0.034089
vt 0.953433 0.947765
vn -0.304600 0.587900 -0.749400
vn -0.318400 0.504500 -0.802500
vn -0.358800 0.518800 -0.775900
vn -0.057300 0.905800 -0.419700
vn -0.098500 0.908300 -0.406600
vn 0.014500 0.949900 -0.312000
vn -0.208600 0.765300 -0.608900
vn -0.247800 0.788900 -0.562300
vn -0.345000 0.622700 -0.702300
vn -0.166600 0.724100 -0.669300
vn -0.260700 0.568000 -0.780600
vn -0.035500 0.875400 -0.482000
vn 0.038500 0.940200 -0.338400
vn -0.293700 0.496000 -0.817100
vn 0.380800 0.894700 0.233600
vn 0.459600 0.845900 0.270700
vn 0.463900 0.857700 0.221800
vn -0.124100 0.982000 0.142400
vn -0.105800 0.989000 0.103700
vn -0.256000 0.960000 0.113300
vn 0.152700 0.971100 0.183100
vn 0.140000 0.982800 0.120100
vn 0.363500 0.916300 0.168100
vn 0.179900 0.948800 0.259700
vn 0.379600 0.878900 0.288800
vn -0.087500 0.974900 0.204700
vn -0.251600 0.956100 0.149800
vn 0.455900 0.838200 0.299300
vn -0.604300 0.785700 0.131900
vn -0.678100 0.720100 0.146800
vn -0.653300 0.733100 0.188800
vn -0.179400 0.978800 -0.098600
vn -0.170800 0.983700 -0.056400
vn -0.056800 0.985700 -0.158700
vn -0.413700 0.909600 0.038500
vn -0.367200 0.926600 0.081100
vn -0.554700 0.813500 0.174700
vn -0.477600 0.878600 -0.006900
vn -0.634600 0.768000 0.086400
vn -0.244600 0.961400 -0.125600
vn -0.082000 0.979300 -0.185000
vn -0.691500 0.712100 0.121400
vn 0.069700 -0.996000 -0.055100
vn -0.027200 -0.999100 -0.031500
vn -0.018300 -0.996500 -0.081100
vn 0.561100 -0.827300 -0.024500
vn 0.554200 -0.829600 -0.067200
vn 0.668600 -0.743500 -0.012800
vn 0.310900 -0.948700 -0.057400
vn 0.336500 -0.934500 -0.115800
vn 0.104400 -0.987700 -0.116600
vn 0.265700 -0.964000 0.012100
vn 0.055300 -0.998400 0.000400
vn 0.517200 -0.855500 0.026000
vn 0.657800 -0.752900 0.021300
vn -0.031800 -0.999500 -0.002000
vn -0.117200 0.976500 0.180600
vn -0.202800 0.952700 0.226300
vn -0.162500 0.952700 0.256700
vn 0.246700 0.950200 -0.190500
vn 0.270000 0.950500 -0.153900
vn 0.332500 0.899300 -0.284100
vn 0.065700 0.997700 0.017900
vn 0.126100 0.991100 0.042000
vn -0.049500 0.978100 0.202200
vn -0.016200 0.999800 -0.001600
vn -0.165300 0.974900 0.149200
vn 0.175800 0.965100 -0.194300
vn 0.300000 0.905300 -0.300600
vn -0.225900 0.951800 0.207400
vn 0.128200 0.976500 0.173000
vn 0.141000 0.952700 0.269100
vn 0.183600 0.952700 0.242100
vn -0.092100 0.950200 -0.297800
vn -0.049700 0.950500 -0.306800
vn -0.149700 0.899300 -0.410900
vn 0.039700 0.997700 -0.055300
vn 0.083400 0.991100 -0.103400
vn 0.172100 0.978100 0.117200
vn -0.007200 0.999800 0.014600
vn 0.081900 0.974900 0.207000
vn -0.120500 0.965100 -0.232600
vn -0.176600 0.905300 -0.386200
vn 0.115200 0.951800 0.284200
vn -0.128500 0.990400 -0.050500
vn -0.095600 0.984800 -0.144600
vn -0.145500 0.979400 -0.140000
vn -0.136200 0.878600 0.457700
vn -0.178000 0.876800 0.446600
vn -0.129700 0.808000 0.574700
vn -0.151800 0.969300 0.193200
vn -0.211400 0.953500 0.214800
vn -0.192500 0.981000 -0.020900
vn -0.079300 0.985000 0.153200
vn -0.072100 0.995600 -0.059900
vn -0.083500 0.905700 0.415700
vn -0.095400 0.818800 0.566100
vn -0.065800 0.987000 -0.146400
vn 0.286800 0.851900 -0.438200
vn 0.214000 0.836300 -0.504700
vn 0.199500 0.862900 -0.464300
vn 0.682800 0.719400 -0.127400
vn 0.658700 0.745400 -0.102300
vn 0.759700 0.649100 -0.038900
vn 0.482500 0.825800 -0.291900
vn 0.475800 0.848700 -0.231100
vn 0.288000 0.881700 -0.373700
vn 0.477500 0.796500 -0.370800
vn 0.299100 0.821500 -0.485400
vn 0.673700 0.711600 -0.199100
vn 0.767500 0.636900 -0.072900
vn 0.222900 0.819600 -0.527800
vn 0.136100 -0.922100 0.362200
vn 0.205100 -0.934400 0.291100
vn 0.223200 -0.915600 0.334400
vn -0.318500 -0.764300 0.560700
vn -0.289900 -0.752700 0.591100
vn -0.428300 -0.687100 0.586900
vn -0.072100 -0.872600 0.483100
vn -0.065200 -0.839700 0.539200
vn 0.137900 -0.893600 0.427200
vn -0.068200 -0.910500 0.407900
vn 0.119400 -0.942800 0.311200
vn -0.303600 -0.808200 0.504700
vn -0.435600 -0.707300 0.556700
vn 0.193500 -0.944500 0.265500
vn -0.213600 -0.976500 0.027300
vn -0.291800 -0.952700 0.084600
vn -0.301800 -0.952700 0.035100
vn 0.278700 -0.950200 -0.139700
vn 0.255800 -0.950500 -0.176500
vn 0.400200 -0.899300 -0.176400
vn 0.012400 -0.997700 -0.067000
vn 0.016800 -0.991100 -0.131800
vn -0.203700 -0.978100 -0.043100
vn -0.005500 -0.999800 0.015400
vn -0.206100 -0.974900 0.084200
vn 0.251300 -0.965100 -0.074100
vn 0.401000 -0.905300 -0.140000
vn -0.284800 -0.951800 0.113600
vn 0.028800 0.948500 -0.315600
vn -0.262600 0.956600 0.126100
vn -0.059100 0.983100 -0.173100
vn 0.670900 -0.741600 0.001800
vn 0.324700 0.898000 -0.296700
vn -0.164300 0.898000 -0.408000
vn -0.115300 0.807500 0.578500
vn 0.767500 0.639300 -0.046900
vn -0.438100 -0.690000 0.576100
vn 0.408200 -0.898000 -0.163900
s 1
f 15/1/1 12/2/2 4/3/3
f 13/4/4 10/5/5 3/6/6
f 13/4/4 14/7/7 9/8/8
f 14/7/7 15/1/1 8/9/9
f 6/10/10 7/11/11 15/1/1
f 5/12/12 6/10/10 14/7/7
f 1/13/13 5/12/12 13/4/4
f 7/11/11 2/14/14 12/2/2
f 30/1/15 27/2/16 19/3/17
f 28/4/18 25/5/19 18/6/20
f 28/4/18 29/7/21 24/8/22
f 29/7/21 30/1/15 23/9/23
f 21/10/24 22/11/25 30/1/15
f 20/12/26 21/10/24 29/7/21
f 16/13/27 20/12/26 28/4/18
f 22/11/25 17/14/28 27/2/16
f 45/1/29 42/2/30 34/3/31
f 43/4/32 40/5/33 33/6/34
f 43/4/32 44/7/35 39/8/36
f 44/7/35 45/1/29 38/9/37
f 36/10/38 37/11/39 45/1/29
f 35/12/40 36/10/38 44/7/35
f 31/13/41 35/12/40 43/4/32
f 37/11/39 32/14/42 42/2/30
f 60/1/43 57/2/44 49/3/45
f 58/4/46 55/5/47 48/6/48
f 58/4/46 59/7/49 54/8/50
f 59/7/49 60/1/43 53/9/51
f 51/10/52 52/11/53 60/1/43
f 50/12/54 51/10/52 59/7/49
f 46/13/55 50/12/54 58/4/46
f 52/11/53 47/14/56 57/2/44
f 75/1/57 72/2/58 64/3/59
f 73/4/60 70/5/61 63/6/62
f 73/4/60 74/7/63 69/8/64
f 74/7/63 75/1/57 68/9/65
f 66/10/66 67/11/67 75/1/57
f 65/12/68 66/10/66 74/7/63
f 61/13/69 65/12/68 73/4/60
f 67/11/67 62/14/70 72/2/58
f 90/1/71 87/2/72 79/3/73
f 88/4/74 85/5/75 78/6/76
f 88/4/74 89/7/77 84/8/78
f 89/7/77 90/1/71 83/9/79
f 81/10/80 82/11/81 90/1/71
f 80/12/82 81/10/80 89/7/77
f 76/13/83 80/12/82 88/4/74
f 82/11/81 77/14/84 87/2/72
f 105/1/85 102/2/86 94/3/87
f 103/4/88 100/5/89 93/6/90
f 103/4/88 104/7/91 99/8/92
f 104/7/91 105/1/85 98/9/93
f 96/10/94 97/11/95 105/1/85
f 95/12/96 96/10/94 104/7/91
f 91/13/97 95/12/96 103/4/88
f 97/11/95 92/14/98 102/2/86
f 120/1/99 117/2/100 109/3/101
f 118/4/102 115/5/103 108/6/104
f 118/4/102 119/7/105 114/8/106
f 119/7/105 120/1/99 113/9/107
f 111/10/108 112/11/109 120/1/99
f 110/12/110 111/10/108 119/7/105
f 106/13/111 110/12/110 118/4/102
f 112/11/109 107/14/112 117/2/100
f 135/1/113 132/2/114 124/3/115
f 133/4/116 130/5/117 123/6/118
f 133/4/116 134/7/119 129/8/120
f 134/7/119 135/1/113 128/9/121
f 126/10/122 127/11/123 135/1/113
f 125/12/124 126/10/122 134/7/119
f 121/13/125 125/12/124 133/4/116
f 127/11/123 122/14/126 132/2/114
f 150/1/127 147/2/128 139/3/129
f 148/4/130 145/5/131 138/6/132
f 148/4/130 149/7/133 144/8/134
f 149/7/133 150/1/127 143/9/135
f 141/10/136 142/11/137 150/1/127
f 140/12/138 141/10/136 149/7/133
f 136/13/139 140/12/138 148/4/130
f 142/11/137 137/14/140 147/2/128
f 8/9/9 15/1/1 4/3/3
f 11/15/141 13/4/4 3/6/6
f 10/5/5 13/4/4 9/8/8
f 9/8/8 14/7/7 8/9/9
f 14/7/7 6/10/10 15/1/1
f 13/4/4 5/12/12 14/7/7
f 11/15/141 1/13/13 13/4/4
f 15/1/1 7/11/11 12/2/2
f 23/9/23 30/1/15 19/3/17
f 26/15/142 28/4/18 18/6/20
f 25/5/19 28/4/18 24/8/22
f 24/8/22 29/7/21 23/9/23
f 29/7/21 21/10/24 30/1/15
f 28/4/18 20/12/26 29/7/21
f 26/15/142 16/13/27 28/4/18
f 30/1/15 22/11/25 27/2/16
f 38/9/37 45/1/29 34/3/31
f 41/15/143 43/4/32 33/6/34
f 40/5/33 43/4/32 39/8/36
f 39/8/36 44/7/35 38/9/37
f 44/7/35 36/10/38 45/1/29
f 43/4/32 35/12/40 44/7/35
f 41/15/143 31/13/41 43/4/32
f 45/1/29 37/11/39 42/2/30
f 53/9/51 60/1/43 49/3/45
f 56/15/144 58/4/46 48/6/48
f 55/5/47 58/4/46 54/8/50
f 54/8/50 59/7/49 53/9/51
f 59/7/49 51/10/52 60/1/43
f 58/4/46 50/12/54 59/7/49
f 56/15/144 46/13/55 58/4/46
f 60/1/43 52/11/53 57/2/44
f 68/9/65 75/1/57 64/3/59
f 71/15/145 73/4/60 63/6/62
f 70/5/61 73/4/60 69/8/64
f 69/8/64 74/7/63 68/9/65
f 74/7/63 66/10/66 75/1/57
f 73/4/60 65/12/68 74/7/63
f 71/15/145 61/13/69 73/4/60
f 75/1/57 67/11/67 72/2/58
f 83/9/79 90/1/71 79/3/73
f 86/15/146 88/4/74 78/6/76
f 85/5/75 88/4/74 84/8/78
f 84/8/78 89/7/77 83/9/79
f 89/7/77 81/10/80 90/1/71
f 88/4/74 80/12/82 89/7/77
f 86/15/146 76/13/83 88/4/74
f 90/1/71 82/11/81 87/2/72
f 98/9/93 105/1/85 94/3/87
f 101/15/147 103/4/88 93/6/90
f 100/5/89 103/4/88 99/8/92
f 99/8/92 104/7/91 98/9/93
f 104/7/91 96/10/94 105/1/85
f 103/4/88 95/12/96 104/7/91
f 101/15/147 91/13/97 103/4/88
f 105/1/85 97/11/95 102/2/86
f 113/9/107 120/1/99 109/3/101
f 116/15/148 118/4/102 108/6/104
f 115/5/103 118/4/102 114/8/106
f 114/8/106 119/7/105 113/9/107
f 119/7/105 111/10/108 120/1/99
f 118/4/102 110/12/110 119/7/105
f 116/15/148 106/13/111 118/4/102
f 120/1/99 112/11/109 117/2/100
f 128/9/121 135/1/113 124/3/115
f 131/15/149 133/4/116 123/6/118
f 130/5/117 133/4/116 129/8/120
f 129/8/120 134/7/119 128/9/121
f 134/7/119 126/10/122 135/1/113
f 133/4/116 125/12/124 134/7/119
f 131/15/149 121/13/125 133/4/116
f 135/1/113 127/11/123 132/2/114
f 143/9/135 150/1/127 139/3/129
f 146/15/150 148/4/130 138/6/132
f 145/5/131 148/4/130 144/8/134
f 144/8/134 149/7/133 143/9/135
f 149/7/133 141/10/136 150/1/127
f 148/4/130 140/12/138 149/7/133
f 146/15/150 136/13/139 148/4/130
f 150/1/127 142/11/137 147/2/128
