# Blender v2.76 (sub 0) OBJ File: ''
# www.blender.org
o Object01.001
v 0.121466 0.002248 0.028246
v 0.349977 0.010745 -0.001370
v 0.121407 0.010902 -0.000866
v 0.364792 0.001659 0.028347
v 0.364760 -0.001814 -0.028572
v 0.429593 -0.000037 -0.000190
v 0.121471 -0.001218 -0.028536
v 0.349977 -0.010870 0.001178
v 0.121408 -0.010713 0.001681
v 0.133693 0.003863 0.063806
v 0.102674 0.023185 -0.002721
v 0.080748 0.002716 0.045247
v 0.113784 0.004595 0.076814
v 0.068174 0.012859 0.014138
v 0.146194 0.011344 -0.001464
v 0.068230 0.010933 -0.017007
v 0.080703 -0.002798 -0.045285
v 0.113710 -0.004698 -0.076999
v 0.133562 -0.003912 -0.063973
v 0.102668 -0.023309 0.002697
v 0.068258 -0.011084 0.016934
v 0.146246 -0.011484 0.001207
v 0.068210 -0.012929 -0.014260
v 0.000087 0.017628 -0.023383
v 0.000205 0.020198 0.018975
v 0.000130 -0.017740 0.023361
v 0.000155 -0.020284 -0.019033
v -0.067449 0.012232 -0.014847
v -0.067371 0.013777 0.011957
v -0.067453 -0.013870 -0.011765
v -0.067432 -0.012234 0.014902
v -0.106334 0.011128 -0.017024
v -0.106402 0.013052 0.014344
v -0.082213 0.005932 -0.031512
v -0.082269 -0.009679 -0.029710
v -0.097597 -0.001919 -0.030625
v -0.106413 -0.011114 0.017177
v -0.106344 -0.013038 -0.014191
v -0.082161 -0.005987 0.031649
v -0.082173 0.009712 0.029934
v -0.097557 0.001862 0.030821
v -0.122660 0.000031 0.000126
vt 0.009000 0.854200
vt 0.098200 0.092300
vt 0.098200 0.854200
vt 0.009000 0.075900
vt 0.155400 0.026100
vt 0.098200 0.003700
vt 0.187600 0.854200
vt 0.187600 0.075900
vt 0.041200 0.026100
vt 0.553400 0.975000
vt 0.428200 0.956100
vt 0.389400 0.922000
vt 0.481800 0.884400
vt 0.603600 0.941000
vt 0.367400 0.863000
vt 0.307200 0.996500
vt 0.247200 0.863000
vt 0.132800 0.884400
vt 0.225200 0.922000
vt 0.010800 0.941000
vt 0.061000 0.975000
vt 0.186400 0.956100
vt 0.554800 0.714700
vt 0.546000 0.693300
vt 0.468000 0.693300
vt 0.224600 0.772900
vt 0.390000 0.772900
vt 0.569800 0.603300
vt 0.444000 0.603200
vt 0.444200 0.603300
vt 0.569800 0.603200
vt 0.387800 0.680900
vt 0.226600 0.680700
vt 0.255800 0.571500
vt 0.358800 0.571500
vt 0.568000 0.511100
vt 0.445800 0.511300
vt 0.464400 0.402000
vt 0.549600 0.402000
vt 0.226600 0.680900
vt 0.387800 0.680700
vt 0.568200 0.511300
vt 0.445800 0.511100
vt 0.246800 0.504900
vt 0.367800 0.504900
vt 0.532600 0.376700
vt 0.481400 0.376700
vt 0.507000 0.350400
vt 0.467400 0.335400
vt 0.546400 0.335400
vt 0.188800 0.546200
vt 0.188800 0.519900
vt 0.425600 0.546200
vt 0.425600 0.519900
vt 0.307200 0.477000
vt 0.507000 0.307600
vt 0.459200 0.714700
vn 0.001300 0.958500 0.284900
vn 0.002200 0.956600 0.291400
vn 0.131000 0.925400 -0.355600
vn -0.000300 0.916500 -0.400100
vn 0.002100 0.908600 -0.417700
vn 0.000300 -0.898900 0.438100
vn 0.000400 -0.898900 0.438100
vn -0.002400 -0.907600 0.419800
vn 0.126900 -0.964500 -0.231500
vn -0.002400 -0.956000 -0.293400
vn -0.001400 -0.953800 -0.300300
vn -0.001300 -0.953900 -0.300100
vn 0.131300 -0.925500 0.355300
vn 0.127200 0.964500 0.231500
vn 0.890100 0.324100 -0.320400
vn -0.298100 0.919500 0.256300
vn -0.108300 0.931200 0.348100
vn 0.221600 0.865300 0.449600
vn -0.312600 0.948100 -0.057500
vn -0.308100 0.874500 -0.374600
vn 0.175200 0.930000 -0.323100
vn 0.880100 0.388900 0.272400
vn -0.308200 -0.874300 0.375100
vn 0.886300 -0.362100 -0.288700
vn -0.113300 -0.873000 0.474400
vn 0.216400 -0.853300 -0.474300
vn -0.313000 -0.948000 0.057400
vn -0.299000 -0.919300 -0.256100
vn 0.896700 -0.293800 0.331000
vn 0.170500 -0.964500 -0.201600
vn -0.921400 0.045000 0.386000
vn 0.103100 0.992800 -0.061000
vn 0.103300 0.992800 -0.060300
vn 0.103000 0.992800 -0.060700
vn 0.102900 0.992800 -0.060500
vn 0.103000 -0.992900 0.060300
vn 0.103000 -0.992900 0.060200
vn 0.103000 -0.992900 0.060000
vn 0.103100 -0.992900 0.059600
vn 0.082700 0.115400 0.989900
vn 0.083000 0.115400 0.989800
vn 0.082800 0.115200 0.989900
vn 0.082700 0.114900 0.989900
vn 0.081400 -0.115100 -0.990000
vn 0.081500 -0.115300 -0.990000
vn 0.081500 -0.115100 -0.990000
vn -0.087900 0.994300 -0.059900
vn -0.087900 0.994300 -0.060100
vn -0.088100 0.994300 -0.060400
vn -0.088200 0.994300 -0.060200
vn -0.116100 -0.115000 -0.986600
vn -0.116200 -0.115000 -0.986600
vn -0.116000 -0.114700 -0.986600
vn -0.115900 -0.114900 -0.986600
vn -0.088300 -0.994300 0.060000
vn -0.088400 -0.994300 0.060200
vn -0.088000 -0.994300 0.060600
vn -0.087800 -0.994300 0.061100
vn -0.114200 0.115100 0.986800
vn -0.114300 0.114900 0.986800
vn -0.114100 0.114800 0.986800
vn -0.114400 0.115200 0.986700
vn -0.023900 0.997900 -0.060500
vn -0.023800 0.997900 -0.060400
vn -0.023800 0.997900 -0.060500
vn -0.000700 -0.115700 -0.993300
vn -0.024200 -0.997900 0.060500
vn 0.000700 0.115600 0.993300
vn 0.000600 0.115600 0.993300
vn -0.863800 -0.058200 -0.500400
vn -0.863200 0.058500 0.501500
vn 0.761000 -0.075000 -0.644400
vn 0.761800 0.074800 0.643400
vn -0.006300 0.938700 -0.344700
vn -0.332800 0.566100 -0.754200
vn -0.315900 0.697400 0.643300
vn -0.005800 0.975500 0.220000
vn -0.316900 -0.697200 -0.643000
vn -0.006400 -0.975500 -0.220100
vn -0.006200 -0.938700 0.344800
vn -0.332000 -0.566000 0.754600
vn -0.598200 0.799900 -0.048200
vn -0.694600 -0.083100 -0.714600
vn -0.598400 -0.799700 0.048600
vn -0.693700 0.083600 0.715400
vn 0.231400 0.785500 -0.574000
vn 0.227900 -0.768100 0.598400
vn -0.109200 -0.931100 -0.348000
vn -0.921900 -0.044800 -0.384900
vn -0.113900 0.873000 -0.474200
vn 0.175400 -0.929900 0.323400
vn 0.170800 0.964500 0.201200
s 1
f 1/1/1 2/2/1 3/3/1
f 2/2/2 1/1/2 4/4/2
f 5/5/3 2/2/3 6/6/3
f 3/3/4 2/2/4 7/7/4
f 5/8/5 7/7/5 2/2/5
f 8/2/6 1/1/7 9/3/7
f 1/1/8 8/2/8 4/4/8
f 6/6/9 8/2/9 5/5/9
f 5/8/10 8/2/10 7/7/10
f 9/3/11 7/7/12 8/2/12
f 8/2/13 6/6/13 4/9/13
f 4/9/14 6/6/14 2/2/14
f 10/10/15 1/11/15 11/12/15
f 11/12/16 12/13/16 13/14/16
f 12/13/17 11/12/17 14/15/17
f 15/16/18 11/12/18 1/11/18
f 16/17/19 14/15/19 11/12/19
f 17/18/20 11/19/20 18/20/20
f 19/21/21 18/20/21 11/19/21
f 7/22/22 19/21/22 11/19/22
f 20/12/23 13/14/23 12/13/23
f 20/12/24 1/11/24 10/10/24
f 21/15/25 20/12/25 12/13/25
f 20/19/26 7/22/26 22/16/26
f 20/12/27 21/15/27 23/17/27
f 18/20/28 20/19/28 17/18/28
f 20/19/29 19/21/29 7/22/29
f 19/21/30 20/19/30 18/20/30
f 12/23/31 14/24/31 21/25/31
f 14/15/32 16/17/33 24/26/34
f 24/26/34 25/27/35 14/15/32
f 23/17/36 21/15/37 26/27/38
f 26/27/38 27/26/39 23/17/36
f 21/25/40 14/24/41 25/28/42
f 25/28/42 26/29/43 21/25/40
f 16/24/44 23/25/45 27/30/46
f 27/30/46 24/31/44 16/24/44
f 25/32/47 24/33/48 28/34/49
f 28/34/49 29/35/50 25/32/47
f 24/36/51 27/37/52 30/38/53
f 30/38/53 28/39/54 24/36/51
f 27/40/55 26/41/56 31/35/57
f 31/35/57 30/34/58 27/40/55
f 31/38/59 25/42/60 29/39/61
f 25/42/60 31/38/59 26/43/62
f 29/35/63 28/34/63 32/44/64
f 32/44/64 33/45/65 29/35/63
f 34/46/66 35/47/66 36/48/66
f 30/34/67 31/35/67 37/45/67
f 37/45/67 38/44/67 30/34/67
f 39/47/68 40/46/68 41/48/69
f 38/49/70 32/50/70 36/48/70
f 33/50/71 37/49/71 41/48/71
f 28/39/72 30/38/72 35/47/72
f 35/47/72 34/46/72 28/39/72
f 31/38/73 29/39/73 40/46/73
f 40/46/73 39/47/73 31/38/73
f 32/44/74 28/34/74 34/51/74
f 34/51/75 36/52/75 32/44/75
f 40/53/76 33/45/76 41/54/76
f 33/45/77 40/53/77 29/35/77
f 35/51/78 38/44/78 36/52/78
f 38/44/79 35/51/79 30/34/79
f 37/45/80 31/35/80 39/53/80
f 39/53/81 41/54/81 37/45/81
f 33/45/82 32/44/82 42/55/82
f 32/50/83 38/49/83 42/56/83
f 38/44/84 37/45/84 42/55/84
f 37/49/85 33/50/85 42/56/85
f 11/19/86 15/16/86 7/22/86
f 20/12/87 22/16/87 1/11/87
f 20/19/88 23/17/88 17/18/88
f 17/57/89 23/25/89 16/24/89
f 17/18/90 16/17/90 11/19/90
f 13/14/91 20/12/91 10/10/91
f 13/14/92 10/10/92 11/12/92
