# Blender v2.76 (sub 0) OBJ File: 'sword.blend'
# www.blender.org
o Object01.001
v 0.128269 0.002248 0.028246
v 0.956116 0.010745 -0.001370
v 0.128210 0.010902 -0.000866
v 0.970931 0.001659 0.028347
v 0.970899 -0.001814 -0.028572
v 1.035732 -0.000037 -0.000190
v 0.128274 -0.001218 -0.028536
v 0.956116 -0.010870 0.001178
v 0.128211 -0.010713 0.001681
v 0.140496 0.003863 0.063806
v 0.109477 0.023185 -0.002721
v 0.087551 0.002716 0.045247
v 0.120587 0.004595 0.076814
v 0.074977 0.012859 0.014138
v 0.152997 0.011344 -0.001464
v 0.075033 0.010933 -0.017007
v 0.087506 -0.002798 -0.045285
v 0.120513 -0.004698 -0.076999
v 0.140365 -0.003912 -0.063973
v 0.109471 -0.023309 0.002697
v 0.075061 -0.011084 0.016934
v 0.153049 -0.011484 0.001207
v 0.075013 -0.012929 -0.014260
v -0.004624 0.017628 -0.023383
v -0.004517 0.020198 0.018975
v -0.004569 -0.017740 0.023361
v -0.004542 -0.020284 -0.019033
v -0.095353 0.012232 -0.014847
v -0.095275 0.013777 0.011957
v -0.095357 -0.013870 -0.011765
v -0.095336 -0.012234 0.014902
v -0.134238 0.011128 -0.017024
v -0.134306 0.013052 0.014344
v -0.110117 0.005932 -0.031512
v -0.110173 -0.009679 -0.029710
v -0.125501 -0.001919 -0.030625
v -0.134317 -0.011114 0.017177
v -0.134248 -0.013038 -0.014191
v -0.110065 -0.005987 0.031649
v -0.110077 0.009712 0.029934
v -0.125461 0.001862 0.030821
v -0.150564 0.000031 0.000126
vt 0.002250 0.854200
vt 0.024550 0.092300
vt 0.024550 0.854200
vt 0.002250 0.075900
vt 0.038850 0.026100
vt 0.024550 0.003700
vt 0.046900 0.854200
vt 0.046900 0.075900
vt 0.010300 0.026100
vt 0.138350 0.975000
vt 0.107050 0.956100
vt 0.097350 0.922000
vt 0.120450 0.884400
vt 0.150900 0.941000
vt 0.091850 0.863000
vt 0.076800 0.996500
vt 0.061800 0.863000
vt 0.033200 0.884400
vt 0.056300 0.922000
vt 0.002700 0.941000
vt 0.015250 0.975000
vt 0.046600 0.956100
vt 0.138700 0.714700
vt 0.136500 0.693300
vt 0.117000 0.693300
vt 0.056150 0.772900
vt 0.097500 0.772900
vt 0.142450 0.603300
vt 0.111000 0.603200
vt 0.111050 0.603300
vt 0.142450 0.603200
vt 0.096950 0.680900
vt 0.056650 0.680700
vt 0.063950 0.571500
vt 0.089700 0.571500
vt 0.142000 0.511100
vt 0.111450 0.511300
vt 0.116100 0.402000
vt 0.137400 0.402000
vt 0.056650 0.680900
vt 0.096950 0.680700
vt 0.142050 0.511300
vt 0.111450 0.511100
vt 0.061700 0.504900
vt 0.091950 0.504900
vt 0.133150 0.376700
vt 0.120350 0.376700
vt 0.126750 0.350400
vt 0.116850 0.335400
vt 0.136600 0.335400
vt 0.047200 0.546200
vt 0.047200 0.519900
vt 0.106400 0.546200
vt 0.106400 0.519900
vt 0.076800 0.477000
vt 0.126750 0.307600
vt 0.114800 0.714700
vn 0.000400 0.958700 0.284500
vn 0.000600 0.956400 0.292100
vn 0.131000 0.925400 -0.355600
vn -0.000100 0.916500 -0.400100
vn 0.000600 0.908200 -0.418600
vn 0.000100 -0.899000 0.437900
vn -0.000700 -0.907900 0.419100
vn 0.126900 -0.964500 -0.231600
vn -0.000700 -0.956200 -0.292700
vn -0.000400 -0.953900 -0.300200
vn 0.131200 -0.925500 0.355300
vn 0.127200 0.964500 0.231500
vn 0.890200 0.324100 -0.320300
vn -0.298200 0.919500 0.256300
vn -0.108400 0.931200 0.348000
vn 0.221400 0.865400 0.449500
vn -0.312600 0.948200 -0.057300
vn -0.308100 0.874500 -0.374600
vn 0.175200 0.929900 -0.323500
vn 0.880100 0.388800 0.272400
vn -0.308000 -0.874400 0.375000
vn 0.886300 -0.362100 -0.288700
vn -0.113300 -0.872900 0.474500
vn 0.216500 -0.853300 -0.474300
vn -0.312900 -0.948000 0.057600
vn -0.299000 -0.919300 -0.256100
vn 0.896700 -0.293800 0.331000
vn 0.170100 -0.964600 -0.201300
vn -0.921400 0.045000 0.386000
vn 0.088500 0.994200 -0.060300
vn 0.088100 0.994300 -0.060600
vn 0.088300 -0.994300 0.060300
vn 0.088300 -0.994300 0.060400
vn 0.071000 0.115500 0.990800
vn 0.070900 0.115200 0.990800
vn 0.069700 -0.115300 -0.990900
vn 0.069700 -0.115200 -0.990900
vn -0.065800 0.996000 -0.060300
vn -0.065700 0.996000 -0.060400
vn -0.086600 -0.115200 -0.989600
vn -0.065900 -0.996000 0.060300
vn -0.065800 -0.996000 0.060700
vn -0.085400 0.115100 0.989700
vn -0.085400 0.115300 0.989600
vn -0.023900 0.997900 -0.060500
vn -0.024000 0.997900 -0.060500
vn -0.000700 -0.115700 -0.993300
vn -0.024200 -0.997900 0.060500
vn 0.000700 0.115600 0.993300
vn 0.000600 0.115600 0.993300
vn -0.863800 -0.058200 -0.500400
vn -0.863200 0.058500 0.501500
vn 0.761000 -0.075000 -0.644400
vn 0.761800 0.074800 0.643400
vn -0.006300 0.938700 -0.344700
vn -0.332800 0.566100 -0.754200
vn -0.315900 0.697400 0.643300
vn -0.005800 0.975500 0.220000
vn -0.316900 -0.697200 -0.643000
vn -0.006400 -0.975500 -0.220100
vn -0.006200 -0.938700 0.344800
vn -0.332000 -0.566000 0.754600
vn -0.598200 0.799900 -0.048200
vn -0.694600 -0.083100 -0.714600
vn -0.598400 -0.799700 0.048800
vn -0.693700 0.083400 0.715400
vn 0.231400 0.785500 -0.574000
vn 0.227900 -0.768100 0.598400
vn -0.109200 -0.931100 -0.348000
vn -0.921900 -0.044800 -0.384900
vn -0.113900 0.873000 -0.474200
vn 0.175400 -0.929900 0.323400
vn 0.170800 0.964500 0.201200
s off
f 1/1/1 2/2/1 3/3/1
f 2/2/2 1/1/2 4/4/2
f 5/5/3 2/2/3 6/6/3
f 3/3/4 2/2/4 7/7/4
f 5/8/5 7/7/5 2/2/5
f 8/2/6 1/1/6 9/3/6
f 1/1/7 8/2/7 4/4/7
f 6/6/8 8/2/8 5/5/8
f 5/8/9 8/2/9 7/7/9
f 9/3/10 7/7/10 8/2/10
f 8/2/11 6/6/11 4/9/11
f 4/9/12 6/6/12 2/2/12
f 10/10/13 1/11/13 11/12/13
f 11/12/14 12/13/14 13/14/14
f 12/13/15 11/12/15 14/15/15
f 15/16/16 11/12/16 1/11/16
f 16/17/17 14/15/17 11/12/17
f 17/18/18 11/19/18 18/20/18
f 19/21/19 18/20/19 11/19/19
f 7/22/20 19/21/20 11/19/20
f 20/12/21 13/14/21 12/13/21
f 20/12/22 1/11/22 10/10/22
f 21/15/23 20/12/23 12/13/23
f 20/19/24 7/22/24 22/16/24
f 20/12/25 21/15/25 23/17/25
f 18/20/26 20/19/26 17/18/26
f 20/19/27 19/21/27 7/22/27
f 19/21/28 20/19/28 18/20/28
f 12/23/29 14/24/29 21/25/29
f 14/15/30 16/17/30 24/26/30
f 24/26/31 25/27/31 14/15/31
f 23/17/32 21/15/32 26/27/32
f 26/27/33 27/26/33 23/17/33
f 21/25/34 14/24/34 25/28/34
f 25/28/35 26/29/35 21/25/35
f 16/24/36 23/25/36 27/30/36
f 27/30/37 24/31/37 16/24/37
f 25/32/38 24/33/38 28/34/38
f 28/34/39 29/35/39 25/32/39
f 24/36/40 27/37/40 30/38/40
f 30/38/40 28/39/40 24/36/40
f 27/40/41 26/41/41 31/35/41
f 31/35/42 30/34/42 27/40/42
f 31/38/43 25/42/43 29/39/43
f 25/42/44 31/38/44 26/43/44
f 29/35/45 28/34/45 32/44/45
f 32/44/46 33/45/46 29/35/46
f 34/46/47 35/47/47 36/48/47
f 30/34/48 31/35/48 37/45/48
f 37/45/48 38/44/48 30/34/48
f 39/47/49 40/46/49 41/48/50
f 38/49/51 32/50/51 36/48/51
f 33/50/52 37/49/52 41/48/52
f 28/39/53 30/38/53 35/47/53
f 35/47/53 34/46/53 28/39/53
f 31/38/54 29/39/54 40/46/54
f 40/46/54 39/47/54 31/38/54
f 32/44/55 28/34/55 34/51/55
f 34/51/56 36/52/56 32/44/56
f 40/53/57 33/45/57 41/54/57
f 33/45/58 40/53/58 29/35/58
f 35/51/59 38/44/59 36/52/59
f 38/44/60 35/51/60 30/34/60
f 37/45/61 31/35/61 39/53/61
f 39/53/62 41/54/62 37/45/62
f 33/45/63 32/44/63 42/55/63
f 32/50/64 38/49/64 42/56/64
f 38/44/65 37/45/65 42/55/65
f 37/49/66 33/50/66 42/56/66
f 11/19/67 15/16/67 7/22/67
f 20/12/68 22/16/68 1/11/68
f 20/19/69 23/17/69 17/18/69
f 17/57/70 23/25/70 16/24/70
f 17/18/71 16/17/71 11/19/71
f 13/14/72 20/12/72 10/10/72
f 13/14/73 10/10/73 11/12/73
