# Blender v2.76 (sub 0) OBJ File: 'player.blend'
# www.blender.org
o Plane
v -8.000000 -2.000000 8.000000
v 8.000000 -2.000000 8.000000
v -8.000000 -2.000000 -8.000000
v 8.000000 -2.000000 -8.000000
v -8.000000 12.000000 -8.000000
v -8.000000 12.000000 8.000000
v 8.000000 12.000000 8.000000
v 8.000000 12.000000 -8.000000
vt 1.000000 0.000000
vt 1.000000 1.000000
vt 0.000000 1.000000
vt 0.000000 0.000000
vn 0.000000 1.000000 0.000000
vn 0.000000 -1.000000 0.000000
vn 0.000000 0.000000 1.000000
vn 0.000000 0.000000 -1.000000
vn -1.000000 0.000000 0.000000
vn 1.000000 0.000000 0.000000
s off
f 2/1/1 4/2/1 3/3/1
f 5/1/2 8/2/2 7/3/2
f 8/1/3 5/2/3 3/3/3
f 6/1/4 7/2/4 2/3/4
f 7/1/5 8/2/5 4/3/5
f 5/1/6 6/2/6 1/3/6
f 1/4/1 2/1/1 3/3/1
f 6/4/2 5/1/2 7/3/2
f 4/4/3 8/1/3 3/3/3
f 1/4/4 6/1/4 2/3/4
f 2/4/5 7/1/5 4/3/5
f 3/4/6 5/1/6 1/3/6
