# Blender v2.76 (sub 0) OBJ File: ''
# www.blender.org
mtllib ico.mtl
o Icosphere
v 0.000000 -1.000000 0.000000
v 0.723600 -0.447215 0.525720
v -0.276385 -0.447215 0.850640
v -0.894425 -0.447215 0.000000
v -0.276385 -0.447215 -0.850640
v 0.723600 -0.447215 -0.525720
v 0.276385 0.447215 0.850640
v -0.723600 0.447215 0.525720
v -0.723600 0.447215 -0.525720
v 0.276385 0.447215 -0.850640
v 0.894425 0.447215 0.000000
v 0.000000 1.000000 0.000000
vt 0.500000 0.000000
vt 0.904506 0.276393
vt 0.345496 0.276393
vt 0.000000 0.276393
vt 1.000000 0.723608
vt 0.654504 0.723608
vt 0.095494 0.723608
vt 0.500000 1.000000
vn 0.187600 -0.794700 0.577400
vn 0.607100 -0.794700 0.000000
vn -0.491100 -0.794700 0.356800
vn -0.491100 -0.794700 -0.356800
vn 0.187600 -0.794700 -0.577400
vn 0.982200 -0.187600 0.000000
vn 0.303500 -0.187600 0.934200
vn -0.794600 -0.187600 0.577400
vn -0.794600 -0.187600 -0.577400
vn 0.303500 -0.187600 -0.934200
vn 0.794600 0.187600 0.577400
vn -0.303500 0.187600 0.934200
vn -0.982200 0.187600 0.000000
vn -0.303500 0.187600 -0.934200
vn 0.794600 0.187600 -0.577400
vn 0.491100 0.794700 0.356800
vn -0.187600 0.794700 0.577400
vn -0.607100 0.794700 0.000000
vn -0.187600 0.794700 -0.577400
vn 0.491100 0.794700 -0.356800
usemtl Material.001
s off
f 1/1/1 2/2/1 3/3/1
f 2/2/2 1/1/2 6/2/2
f 1/1/3 3/3/3 4/4/3
f 1/1/4 4/4/4 5/3/4
f 1/1/5 5/3/5 6/2/5
f 2/2/6 6/2/6 11/5/6
f 3/3/7 2/2/7 7/6/7
f 4/4/8 3/3/8 8/7/8
f 5/3/9 4/4/9 9/7/9
f 6/2/10 5/3/10 10/6/10
f 2/2/11 11/5/11 7/6/11
f 3/3/12 7/6/12 8/7/12
f 4/4/13 8/7/13 9/7/13
f 5/3/14 9/7/14 10/6/14
f 6/2/15 10/6/15 11/5/15
f 7/6/16 11/5/16 12/8/16
f 8/7/17 7/6/17 12/8/17
f 9/7/18 8/7/18 12/8/18
f 10/6/19 9/7/19 12/8/19
f 11/5/20 10/6/20 12/8/20
