# Blender v2.78 (sub 4) OBJ File: ''
# www.blender.org
o Plane.002_Plane.005
v -0.020000 1.900000 0.400000
v -0.020000 0.000000 0.400000
v -0.020000 1.900000 -0.400000
v -0.020000 0.000000 -0.400000
v 0.000000 1.900000 -0.400000
v 0.000000 1.900000 0.400000
v -0.000000 0.000000 0.400000
v -0.000000 0.000000 -0.400000
vt 0.952380 0.000000
vt 0.000001 1.000000
vt 0.000000 0.000000
vt 1.000000 0.000000
vt 0.000000 1.000000
vt 0.000000 0.000000
vt 0.976190 1.000000
vt 0.964285 0.000000
vt 0.976190 0.000000
vt 0.976190 0.000000
vt 0.988095 0.833333
vt 0.976190 0.833333
vt 0.988095 0.000000
vt 1.000000 0.833333
vt 0.988095 0.833333
vt 0.964285 1.000000
vt 0.952380 1.000000
vt 1.000000 1.000000
vt 0.964285 1.000000
vt 0.988095 0.000000
vt 1.000000 0.000000
vt 0.964285 0.000000
vn -1.0000 0.0000 0.0000
vn 1.0000 -0.0000 0.0000
vn 0.0000 0.0000 1.0000
vn -0.0000 -1.0000 0.0000
vn 0.0000 1.0000 0.0000
vn 0.0000 0.0000 -1.0000
s off
f 3/1/1 2/2/1 1/3/1
f 7/4/2 5/5/2 6/6/2
f 2/7/3 6/8/3 1/9/3
f 4/10/4 7/11/4 2/12/4
f 1/13/5 5/14/5 3/15/5
f 3/1/6 8/16/6 4/17/6
f 3/1/1 4/17/1 2/2/1
f 7/4/2 8/18/2 5/5/2
f 2/7/3 7/19/3 6/8/3
f 4/10/4 8/20/4 7/11/4
f 1/13/5 6/21/5 5/14/5
f 3/1/6 5/22/6 8/16/6
